<svg fill="#ffffff" data-name="Layer 1" xmlns="http://www.w3.org/2000/svg" viewBox="0 0 480.89 125.83"><path class="prefix__cls-1" d="M48.53 49.91L68.99 2.77h-21.7L31.8 42.72l-12.72 1.39V2.77H0v94.01h19.08V60.7l12.72-1.38 15.76 37.46h22L48.54 49.91zM118.77 27.66v51.71l-1.79.55c-3.6 1.3-7.42 1.94-11.47 1.94-4.25 0-6.92-1.25-8.02-3.74-1.11-2.49-1.66-7.14-1.66-13.96v-36.5H77.3v36.21c0 12.45 1.66 21.32 4.98 26.62 3.3 5.31 9.76 7.95 19.34 7.95 4.9 0 10.66-1.84 17.28-5.53v3.87h18.4V27.66h-18.53zM155.27 0v96.79h18.53V0h-18.53zM192.61 0v96.79h18.53V0h-18.53zM229.11 43.54v53.25h18.53V27.66l-18.53 15.87zm0-43.54v18.81h18.53V0h-18.53zM305.02 27.66l-12.59 53.37h-3.19l-12.57-53.37h-18.25l16.84 68.48.17.65h13l-7.6 29.04h18.1l2.91-11.71 12.82-51.71v-.02l8.62-34.74h-18.25zM336.68 8.43v19.23h18.53V8.43h-18.53zm34.84 73.15l-10.51.28c-1.84 0-3.2-.42-4.07-1.25-.88-.83-1.4-1.81-1.53-2.97-.13-1.15-.2-3.1-.2-5.88V43.42h17V27.66h-17l-18.53 15.87v28.64c0 4.38.3 8.17.86 11.34v.02c.75 4.1 1.98 7.21 3.7 9.31 3.04 3.74 8.7 5.6 17 5.6 3.22 0 7.92-.68 14.1-2.08l-.83-14.79zM384.24 43.54v53.25h18.53V27.66l-18.53 15.87zm0-43.54v18.81h18.53V0h-18.53z"/><path d="M461.95 60.42l17.98-32.76h-20.74l-13.7 26.14-7.04 1.25V0h-18.53v96.79h18.53v-25.7l7.6-1.25 13.96 26.95h20.87l-18.95-36.36z"/></svg>